<svg width="50" height="49" viewBox="0 0 50 49" fill="none" xmlns="http://www.w3.org/2000/svg">
<g id="Group 1861">
<path id="Rectangle 1443" d="M0 0H40C45.5228 0 50 4.47715 50 10V39C50 44.5228 45.5228 49 40 49H0V0Z" fill="#16C346"/>
<g id="vuesax/linear/bag-tick">
<g id="bag-tick">
<path id="Vector" d="M21.5442 14.166L17.6226 18.0985" stroke="white" stroke-width="2" stroke-miterlimit="10" stroke-linecap="round" stroke-linejoin="round"/>
<path id="Vector_2" d="M28.4563 14.166L32.378 18.0985" stroke="white" stroke-width="2" stroke-miterlimit="10" stroke-linecap="round" stroke-linejoin="round"/>
<path id="Vector_3" d="M14.1665 20.5046C14.1665 18.5004 15.239 18.3379 16.5715 18.3379H33.4282C34.7607 18.3379 35.8332 18.5004 35.8332 20.5046C35.8332 22.8337 34.7607 22.6712 33.4282 22.6712H16.5715C15.239 22.6712 14.1665 22.8337 14.1665 20.5046Z" stroke="white" stroke-width="2"/>
<path id="Vector_4" d="M15.7915 22.834L17.319 32.194C17.6657 34.2957 18.4998 35.834 21.5982 35.834H28.1307C31.4998 35.834 31.9982 34.3607 32.3882 32.324L34.2082 22.834" stroke="white" stroke-width="2" stroke-linecap="round"/>
<path id="+" d="M25.6168 32.4335V29.9523H28.1064C28.4433 29.9523 28.7164 29.6792 28.7164 29.3422C28.7164 29.0053 28.4433 28.7322 28.1064 28.7322H25.6168V26.2342C25.6168 25.8935 25.3405 25.6172 24.9997 25.6172C24.659 25.6172 24.3827 25.8935 24.3827 26.2342V28.7322H21.8931C21.5562 28.7322 21.2831 29.0053 21.2831 29.3422C21.2831 29.6792 21.5562 29.9523 21.8931 29.9523H24.3827V32.4335C24.3827 32.7743 24.659 33.0505 24.9997 33.0505C25.3405 33.0505 25.6168 32.7743 25.6168 32.4335Z" fill="white" stroke="white" stroke-width="0.5"/>
</g>
</g>
</g>
</svg>
